<?xml version="1.0" standalone="no"?>
<!DOCTYPE svg PUBLIC "-//W3C//DTD SVG 20010904//EN"
 "http://www.w3.org/TR/2001/REC-SVG-20010904/DTD/svg10.dtd">
<svg version="1.0" xmlns="http://www.w3.org/2000/svg"
 width="64.000000pt" height="64.000000pt" viewBox="0 0 64.000000 64.000000"
 preserveAspectRatio="xMidYMid meet">

<g transform="translate(0.000000,64.000000) scale(0.100000,-0.100000)"
fill="#000000" stroke="none">
<path d="M175 587 c-88 -17 -163 -35 -167 -41 -10 -14 -10 -438 0 -452 11 -17
329 -73 342 -60 5 5 10 40 10 77 l0 68 33 3 c20 2 32 8 32 18 0 10 -12 16 -32
18 -24 2 -33 8 -33 22 0 14 9 20 33 22 20 2 32 8 32 18 0 10 -12 16 -32 18
-24 2 -33 8 -33 22 0 14 9 20 33 22 20 2 32 8 32 18 0 10 -12 16 -32 18 -24 2
-33 8 -33 22 0 14 9 20 33 22 20 2 32 8 32 18 0 10 -12 16 -32 18 l-33 3 0 68
c0 43 -5 72 -12 78 -9 6 -69 -1 -173 -20z m105 -163 c0 -9 -13 -33 -30 -54
-16 -21 -30 -42 -30 -47 0 -5 14 -22 30 -38 17 -16 30 -37 30 -47 0 -30 -33
-21 -64 18 l-28 36 -26 -36 c-26 -37 -62 -49 -62 -20 0 8 11 30 25 48 31 41
31 47 0 76 -29 27 -33 60 -8 60 9 0 28 -14 43 -31 l26 -31 28 41 c29 41 66 55
66 25z"/>
<path d="M495 450 c-4 -7 -3 -16 3 -22 14 -14 47 -6 47 12 0 18 -40 26 -50 10z"/>
<path d="M495 370 c-4 -7 -3 -16 3 -22 14 -14 47 -6 47 12 0 18 -40 26 -50 10z"/>
<path d="M495 290 c-4 -7 -3 -16 3 -22 14 -14 47 -6 47 12 0 18 -40 26 -50 10z"/>
<path d="M495 210 c-4 -7 -3 -16 3 -22 14 -14 47 -6 47 12 0 18 -40 26 -50 10z"/>
</g>
</svg>
